<svg width="18" height="18" viewBox="0 0 18 18" fill="none" xmlns="http://www.w3.org/2000/svg">
<rect width="18" height="18" rx="9" fill="#F2F2F7"/>
<path d="M9.00488 12.2969C9.13184 12.2969 9.24902 12.2725 9.35645 12.2236C9.46712 12.1748 9.57292 12.0983 9.67383 11.9941L13.2627 8.31738C13.4157 8.16439 13.4922 7.97721 13.4922 7.75586C13.4922 7.60612 13.4548 7.4694 13.3799 7.3457C13.3083 7.21875 13.2106 7.11947 13.0869 7.04785C12.9665 6.97298 12.8314 6.93555 12.6816 6.93555C12.457 6.93555 12.2585 7.02344 12.0859 7.19922L8.81934 10.5781H9.19531L5.91895 7.19922C5.74642 7.02344 5.54622 6.93555 5.31836 6.93555C5.16862 6.93555 5.0319 6.97298 4.9082 7.04785C4.78776 7.11947 4.6901 7.21875 4.61523 7.3457C4.54362 7.4694 4.50781 7.60612 4.50781 7.75586C4.50781 7.86654 4.52734 7.96908 4.56641 8.06348C4.60547 8.15462 4.66243 8.23926 4.7373 8.31738L8.32617 11.9941C8.53125 12.196 8.75749 12.2969 9.00488 12.2969Z" fill="#3C3C43" fill-opacity="0.6"/>
</svg>
