<svg width="16" height="15" viewBox="0 0 16 15" fill="none" xmlns="http://www.w3.org/2000/svg">
<path d="M0.703125 4.22656H2.24219V2.74219C2.24219 2.36719 2.33594 2.08594 2.52344 1.89844C2.71615 1.71094 2.99479 1.61719 3.35938 1.61719H4.82812V0.078125H3.26562C2.42188 0.078125 1.78385 0.291667 1.35156 0.71875C0.919271 1.14583 0.703125 1.77865 0.703125 2.61719V4.22656ZM5.96875 1.61719H10.0234V0.078125H5.96875V1.61719ZM13.75 4.22656H15.2891V2.61719C15.2891 1.77865 15.0729 1.14583 14.6406 0.71875C14.2083 0.291667 13.5703 0.078125 12.7266 0.078125H11.1641V1.61719H12.6328C12.9922 1.61719 13.2682 1.71094 13.4609 1.89844C13.6536 2.08594 13.75 2.36719 13.75 2.74219V4.22656ZM13.75 9.36719H15.2891V5.36719H13.75V9.36719ZM11.1641 14.6641H12.7266C13.5703 14.6641 14.2083 14.4479 14.6406 14.0156C15.0729 13.5885 15.2891 12.9583 15.2891 12.125V10.5156H13.75V11.9922C13.75 12.3724 13.6536 12.6562 13.4609 12.8438C13.2682 13.0312 12.9922 13.125 12.6328 13.125H11.1641V14.6641ZM5.96875 14.6641H10.0234V13.125H5.96875V14.6641ZM3.26562 14.6641H4.82812V13.125H3.35938C2.99479 13.125 2.71615 13.0312 2.52344 12.8438C2.33594 12.6562 2.24219 12.3724 2.24219 11.9922V10.5156H0.703125V12.125C0.703125 12.9583 0.919271 13.5885 1.35156 14.0156C1.78385 14.4479 2.42188 14.6641 3.26562 14.6641ZM0.703125 9.36719H2.24219V5.36719H0.703125V9.36719Z" fill="#3C3C43" fill-opacity="0.2"/>
</svg>
