<svg width="16" height="19" viewBox="0 0 16 19" fill="none" xmlns="http://www.w3.org/2000/svg">
<path d="M12.3906 12.7188C11.901 12.7188 11.4531 12.8385 11.0469 13.0781C10.6458 13.3177 10.3255 13.6406 10.0859 14.0469C9.84635 14.4479 9.72656 14.8932 9.72656 15.3828C9.72656 15.8672 9.84635 16.3099 10.0859 16.7109C10.3255 17.1172 10.6458 17.4375 11.0469 17.6719C11.4531 17.9062 11.901 18.0234 12.3906 18.0234C12.8802 18.0234 13.3255 17.9062 13.7266 17.6719C14.1276 17.4375 14.4479 17.1172 14.6875 16.7109C14.9271 16.3099 15.0469 15.8672 15.0469 15.3828C15.0469 14.8932 14.9271 14.4479 14.6875 14.0469C14.4479 13.6406 14.1276 13.3177 13.7266 13.0781C13.3255 12.8385 12.8802 12.7188 12.3906 12.7188ZM12.3906 14.1562C12.7292 14.1562 13.0156 14.276 13.25 14.5156C13.4896 14.75 13.6094 15.0391 13.6094 15.3828C13.6094 15.7214 13.4896 16.0078 13.25 16.2422C13.0156 16.4766 12.7292 16.5938 12.3906 16.5938C12.0469 16.5938 11.7552 16.4766 11.5156 16.2422C11.2812 16.0078 11.1641 15.7214 11.1641 15.3828C11.1641 15.0339 11.2812 14.7422 11.5156 14.5078C11.7552 14.2734 12.0469 14.1562 12.3906 14.1562ZM3.60938 6.03906C4.09896 6.03906 4.54427 5.91927 4.94531 5.67969C5.34635 5.4401 5.66667 5.11979 5.90625 4.71875C6.14583 4.3125 6.26562 3.86458 6.26562 3.375C6.26562 2.88542 6.14583 2.4401 5.90625 2.03906C5.66667 1.63802 5.34635 1.31771 4.94531 1.07812C4.54427 0.838542 4.09896 0.71875 3.60938 0.71875C3.11979 0.71875 2.67448 0.838542 2.27344 1.07812C1.8724 1.31771 1.55208 1.63802 1.3125 2.03906C1.07292 2.4401 0.953125 2.88542 0.953125 3.375C0.953125 3.86458 1.07292 4.3125 1.3125 4.71875C1.55208 5.11979 1.8724 5.4401 2.27344 5.67969C2.67448 5.91927 3.11979 6.03906 3.60938 6.03906ZM3.60938 4.60156C3.26562 4.60156 2.97656 4.48438 2.74219 4.25C2.50781 4.01042 2.39062 3.71875 2.39062 3.375C2.39062 3.03125 2.50781 2.74219 2.74219 2.50781C2.97656 2.27344 3.26562 2.15625 3.60938 2.15625C3.95312 2.15625 4.24219 2.27344 4.47656 2.50781C4.71094 2.74219 4.82812 3.03125 4.82812 3.375C4.82812 3.71875 4.71094 4.01042 4.47656 4.25C4.24219 4.48438 3.95312 4.60156 3.60938 4.60156ZM2.85156 6.22656C2.85156 7.0599 3.10156 7.76042 3.60156 8.32812C4.10156 8.89583 4.83594 9.30729 5.80469 9.5625L9.75 10.6328C11.0052 10.9766 11.6328 11.6068 11.6328 12.5234V13.1641H13.1406V12.5234C13.1406 11.6901 12.8906 10.9922 12.3906 10.4297C11.8958 9.86198 11.1641 9.45052 10.1953 9.19531L6.25 8.125C4.98958 7.78125 4.35938 7.14844 4.35938 6.22656V5.58594H2.85156V6.22656Z" fill="#3C3C43" fill-opacity="0.2"/>
</svg>
