<svg width="16" height="17" viewBox="0 0 16 17" fill="none" xmlns="http://www.w3.org/2000/svg">
<path d="M8 16.3281C9.08854 16.3281 10.112 16.1198 11.0703 15.7031C12.0339 15.2865 12.8828 14.7109 13.6172 13.9766C14.3516 13.2422 14.9271 12.3958 15.3438 11.4375C15.7604 10.474 15.9688 9.44792 15.9688 8.35938C15.9688 7.27083 15.7604 6.2474 15.3438 5.28906C14.9271 4.32552 14.3516 3.47656 13.6172 2.74219C12.8828 2.00781 12.0339 1.43229 11.0703 1.01562C10.1068 0.598958 9.08073 0.390625 7.99219 0.390625C6.90365 0.390625 5.8776 0.598958 4.91406 1.01562C3.95573 1.43229 3.10938 2.00781 2.375 2.74219C1.64583 3.47656 1.07292 4.32552 0.65625 5.28906C0.239583 6.2474 0.03125 7.27083 0.03125 8.35938C0.03125 9.44792 0.239583 10.474 0.65625 11.4375C1.07292 12.3958 1.64844 13.2422 2.38281 13.9766C3.11719 14.7109 3.96354 15.2865 4.92188 15.7031C5.88542 16.1198 6.91146 16.3281 8 16.3281ZM8 15C7.07812 15 6.21615 14.8281 5.41406 14.4844C4.61198 14.1406 3.90625 13.6667 3.29688 13.0625C2.69271 12.4531 2.21875 11.7474 1.875 10.9453C1.53646 10.1432 1.36719 9.28125 1.36719 8.35938C1.36719 7.4375 1.53646 6.57552 1.875 5.77344C2.21875 4.97135 2.69271 4.26562 3.29688 3.65625C3.90104 3.04688 4.60417 2.57292 5.40625 2.23438C6.20833 1.89062 7.07031 1.71875 7.99219 1.71875C8.91406 1.71875 9.77604 1.89062 10.5781 2.23438C11.3802 2.57292 12.0859 3.04688 12.6953 3.65625C13.3047 4.26562 13.7812 4.97135 14.125 5.77344C14.4688 6.57552 14.6406 7.4375 14.6406 8.35938C14.6406 9.28125 14.4688 10.1432 14.125 10.9453C13.7865 11.7474 13.3125 12.4531 12.7031 13.0625C12.099 13.6667 11.3932 14.1406 10.5859 14.4844C9.78385 14.8281 8.92188 15 8 15ZM6.63281 12.6562H9.8125C9.97396 12.6562 10.1094 12.6042 10.2188 12.5C10.3281 12.3958 10.3828 12.2656 10.3828 12.1094C10.3828 11.9531 10.3281 11.8229 10.2188 11.7188C10.1094 11.6146 9.97396 11.5625 9.8125 11.5625H8.84375V7.58594C8.84375 7.3724 8.79167 7.20312 8.6875 7.07812C8.58333 6.94792 8.43229 6.88281 8.23438 6.88281H6.76562C6.60417 6.88281 6.46875 6.9349 6.35938 7.03906C6.25 7.14323 6.19531 7.27344 6.19531 7.42969C6.19531 7.58594 6.25 7.71615 6.35938 7.82031C6.46875 7.92448 6.60417 7.97656 6.76562 7.97656H7.60156V11.5625H6.63281C6.47135 11.5625 6.33594 11.6146 6.22656 11.7188C6.11719 11.8229 6.0625 11.9531 6.0625 12.1094C6.0625 12.2656 6.11719 12.3958 6.22656 12.5C6.33594 12.6042 6.47135 12.6562 6.63281 12.6562ZM7.92969 5.57812C8.21615 5.57812 8.45573 5.47917 8.64844 5.28125C8.84635 5.08333 8.94531 4.84375 8.94531 4.5625C8.94531 4.27604 8.84635 4.03385 8.64844 3.83594C8.45573 3.63802 8.21615 3.53906 7.92969 3.53906C7.64844 3.53906 7.40885 3.63802 7.21094 3.83594C7.01302 4.03385 6.91406 4.27604 6.91406 4.5625C6.91406 4.84375 7.01302 5.08333 7.21094 5.28125C7.40885 5.47917 7.64844 5.57812 7.92969 5.57812Z" fill="#007AFF"/>
</svg>
