<svg width="24" height="20" viewBox="0 0 24 20" fill="none" xmlns="http://www.w3.org/2000/svg">
<path d="M7.63281 17.8984H10.2266C10.5495 17.8984 10.8073 17.8047 11 17.6172C11.1927 17.4297 11.2891 17.2005 11.2891 16.9297C11.2891 16.7839 11.2552 16.6328 11.1875 16.4766C11.125 16.3255 11.0234 16.1745 10.8828 16.0234C10.7109 15.8359 10.5755 15.6354 10.4766 15.4219C10.3776 15.2083 10.3281 14.987 10.3281 14.7578C10.3281 14.3047 10.4792 13.9167 10.7812 13.5938C11.0833 13.2708 11.4896 13.1094 12 13.1094C12.5104 13.1094 12.9167 13.2708 13.2188 13.5938C13.5208 13.9167 13.6719 14.3047 13.6719 14.7578C13.6719 14.987 13.6198 15.2083 13.5156 15.4219C13.4167 15.6354 13.2812 15.8359 13.1094 16.0234C12.974 16.1745 12.8724 16.3255 12.8047 16.4766C12.7422 16.6328 12.7109 16.7839 12.7109 16.9297C12.7109 17.2005 12.8073 17.4297 13 17.6172C13.1927 17.8047 13.4505 17.8984 13.7734 17.8984H16.3594C17.1458 17.8984 17.7396 17.7005 18.1406 17.3047C18.5469 16.9089 18.75 16.3229 18.75 15.5469V12.7891C18.75 12.7266 18.7708 12.6849 18.8125 12.6641C18.8542 12.638 18.9089 12.651 18.9766 12.7031C19.1432 12.8177 19.3177 12.9219 19.5 13.0156C19.6823 13.1042 19.8724 13.1745 20.0703 13.2266C20.2734 13.2786 20.4818 13.3047 20.6953 13.3047C21.1901 13.3047 21.6484 13.1823 22.0703 12.9375C22.4974 12.6875 22.8411 12.3438 23.1016 11.9062C23.3672 11.4688 23.5 10.9583 23.5 10.375C23.5 9.79688 23.3672 9.28906 23.1016 8.85156C22.8411 8.40885 22.4974 8.0651 22.0703 7.82031C21.6484 7.57552 21.1901 7.45312 20.6953 7.45312C20.4818 7.45312 20.2734 7.47917 20.0703 7.53125C19.8724 7.58333 19.6823 7.65625 19.5 7.75C19.3177 7.83854 19.1432 7.9401 18.9766 8.05469C18.9089 8.10677 18.8542 8.1224 18.8125 8.10156C18.7708 8.07552 18.75 8.03125 18.75 7.96875V5.14844C18.75 4.3776 18.5469 3.79427 18.1406 3.39844C17.7396 2.9974 17.1458 2.79688 16.3594 2.79688H13.7734C13.4505 2.79688 13.1927 2.89062 13 3.07812C12.8073 3.26562 12.7109 3.49479 12.7109 3.76562C12.7109 3.91146 12.7422 4.0625 12.8047 4.21875C12.8724 4.36979 12.974 4.52083 13.1094 4.67188C13.2812 4.85938 13.4167 5.0599 13.5156 5.27344C13.6198 5.48698 13.6719 5.71094 13.6719 5.94531C13.6719 6.38802 13.5182 6.77344 13.2109 7.10156C12.9089 7.42448 12.5052 7.58594 12 7.58594C11.4948 7.58594 11.0885 7.42448 10.7812 7.10156C10.4792 6.77344 10.3281 6.38802 10.3281 5.94531C10.3281 5.71094 10.3776 5.48698 10.4766 5.27344C10.5755 5.0599 10.7109 4.85938 10.8828 4.67188C11.0234 4.52083 11.125 4.36979 11.1875 4.21875C11.2552 4.0625 11.2891 3.91146 11.2891 3.76562C11.2891 3.49479 11.1927 3.26562 11 3.07812C10.8073 2.89062 10.5495 2.79688 10.2266 2.79688H7.63281C6.85156 2.79688 6.25781 2.9974 5.85156 3.39844C5.45052 3.79427 5.25 4.3776 5.25 5.14844V7.96875C5.25 8.03125 5.22917 8.07552 5.1875 8.10156C5.14583 8.1224 5.09115 8.10677 5.02344 8.05469C4.85677 7.9401 4.68229 7.83854 4.5 7.75C4.31771 7.65625 4.125 7.58333 3.92188 7.53125C3.72396 7.47917 3.51562 7.45312 3.29688 7.45312C2.80729 7.45312 2.34896 7.57552 1.92188 7.82031C1.49479 8.0651 1.15104 8.40885 0.890625 8.85156C0.630208 9.28906 0.5 9.79688 0.5 10.375C0.5 10.9583 0.630208 11.4688 0.890625 11.9062C1.15104 12.3438 1.49479 12.6875 1.92188 12.9375C2.34896 13.1823 2.80729 13.3047 3.29688 13.3047C3.51562 13.3047 3.72396 13.2786 3.92188 13.2266C4.125 13.1745 4.31771 13.1042 4.5 13.0156C4.68229 12.9219 4.85677 12.8177 5.02344 12.7031C5.09115 12.651 5.14583 12.638 5.1875 12.6641C5.22917 12.6849 5.25 12.7266 5.25 12.7891V15.5469C5.25 16.3229 5.45052 16.9089 5.85156 17.3047C6.25781 17.7005 6.85156 17.8984 7.63281 17.8984ZM7.65625 16.6406C7.29688 16.6406 7.01562 16.5417 6.8125 16.3438C6.60938 16.1458 6.50781 15.8594 6.50781 15.4844V12.1562C6.50781 11.8281 6.41406 11.5677 6.22656 11.375C6.03906 11.1823 5.8099 11.0859 5.53906 11.0859C5.39323 11.0859 5.24219 11.1198 5.08594 11.1875C4.9349 11.25 4.78385 11.3516 4.63281 11.4922C4.44531 11.6641 4.24219 11.8021 4.02344 11.9062C3.8099 12.0052 3.58854 12.0547 3.35938 12.0547C2.91667 12.0547 2.53125 11.901 2.20312 11.5938C1.88021 11.2865 1.71875 10.8802 1.71875 10.375C1.71875 9.875 1.88021 9.47135 2.20312 9.16406C2.53125 8.85677 2.91667 8.70312 3.35938 8.70312C3.58854 8.70312 3.8099 8.75521 4.02344 8.85938C4.24219 8.95833 4.44531 9.09375 4.63281 9.26562C4.78385 9.40625 4.9349 9.51042 5.08594 9.57812C5.24219 9.64062 5.39323 9.67188 5.53906 9.67188C5.8099 9.67188 6.03906 9.57552 6.22656 9.38281C6.41406 9.1901 6.50781 8.92969 6.50781 8.60156V5.21094C6.50781 4.84115 6.60938 4.55729 6.8125 4.35938C7.01562 4.15625 7.29688 4.05469 7.65625 4.05469H9.45312C9.63542 4.05469 9.71875 4.09375 9.70312 4.17188C9.6875 4.24479 9.65625 4.31771 9.60938 4.39062C9.50521 4.55208 9.41146 4.71875 9.32812 4.89062C9.25 5.05729 9.1875 5.23438 9.14062 5.42188C9.09896 5.60417 9.07812 5.79948 9.07812 6.00781C9.07812 6.4974 9.20052 6.95573 9.44531 7.38281C9.6901 7.80469 10.0312 8.14844 10.4688 8.41406C10.9115 8.67448 11.4219 8.80469 12 8.80469C12.5781 8.80469 13.0859 8.67448 13.5234 8.41406C13.9661 8.14844 14.3099 7.80469 14.5547 7.38281C14.7995 6.95573 14.9219 6.4974 14.9219 6.00781C14.9219 5.79948 14.8984 5.60417 14.8516 5.42188C14.8047 5.23438 14.7422 5.05729 14.6641 4.89062C14.5859 4.71875 14.4948 4.55208 14.3906 4.39062C14.3438 4.31771 14.3099 4.24479 14.2891 4.17188C14.2734 4.09375 14.3594 4.05469 14.5469 4.05469H16.3438C16.7031 4.05469 16.9844 4.15625 17.1875 4.35938C17.3906 4.55729 17.4922 4.84115 17.4922 5.21094V8.60156C17.4922 8.92969 17.5859 9.1901 17.7734 9.38281C17.9609 9.57552 18.1901 9.67188 18.4609 9.67188C18.6068 9.67188 18.7552 9.64062 18.9062 9.57812C19.0625 9.51042 19.2161 9.40625 19.3672 9.26562C19.5547 9.09375 19.7552 8.95833 19.9688 8.85938C20.1823 8.75521 20.4036 8.70312 20.6328 8.70312C21.0807 8.70312 21.4661 8.85677 21.7891 9.16406C22.1172 9.47135 22.2812 9.875 22.2812 10.375C22.2812 10.8802 22.1172 11.2865 21.7891 11.5938C21.4661 11.901 21.0807 12.0547 20.6328 12.0547C20.4036 12.0547 20.1823 12.0052 19.9688 11.9062C19.7552 11.8021 19.5547 11.6641 19.3672 11.4922C19.2161 11.3516 19.0625 11.25 18.9062 11.1875C18.7552 11.1198 18.6068 11.0859 18.4609 11.0859C18.1901 11.0859 17.9609 11.1823 17.7734 11.375C17.5859 11.5677 17.4922 11.8281 17.4922 12.1562V15.4844C17.4922 15.8594 17.3906 16.1458 17.1875 16.3438C16.9844 16.5417 16.7031 16.6406 16.3438 16.6406H14.5469C14.3594 16.6406 14.2734 16.6016 14.2891 16.5234C14.3099 16.4505 14.3438 16.3776 14.3906 16.3047C14.4948 16.1484 14.5859 15.9844 14.6641 15.8125C14.7422 15.6406 14.8047 15.4635 14.8516 15.2812C14.8984 15.0938 14.9219 14.8984 14.9219 14.6953C14.9219 14.1953 14.7995 13.7344 14.5547 13.3125C14.3151 12.8854 13.974 12.5417 13.5312 12.2812C13.0938 12.0208 12.5833 11.8906 12 11.8906C11.4167 11.8906 10.9036 12.0208 10.4609 12.2812C10.0234 12.5417 9.68229 12.8854 9.4375 13.3125C9.19792 13.7344 9.07812 14.1953 9.07812 14.6953C9.07812 14.8984 9.09896 15.0938 9.14062 15.2812C9.1875 15.4635 9.25 15.6406 9.32812 15.8125C9.41146 15.9844 9.50521 16.1484 9.60938 16.3047C9.65625 16.3776 9.6875 16.4505 9.70312 16.5234C9.71875 16.6016 9.63542 16.6406 9.45312 16.6406H7.65625Z" fill="#669D66"/>
</svg>
